
        <svg width="3600" height="3600" xmlns="http://www.w3.org/2000/svg" xmlns:xlink="http://www.w3.org/1999/xlink" version="1.1">
            <rect fill="#2eb692" width="3600" height="3600"/>
            <g transform="scale(30) translate(10, 10)">
                <defs id="SvgjsDefs8560"/><g id="main_text" rel="mainfill" name="main_text" feature="main_text" xmlns:name="mainText_mainfill" groupName="main_text" fill="#fff" transform="translate(100, 51) scale(3.117989417989418)"><path d=""/></g><g id="SvgjsG8562" rel="mainfill" name="symbol" feature="symbol" xmlns:name="symbol_mainfill" fill="#fff" transform="translate(-9.548419451759624, -8.925478879892658) scale(0.11979686142125603)"><g xmlns="http://www.w3.org/2000/svg"><path fill="#fff" d="M396.6,385.8l0.5,66.8l0.6,81.1l2.6,374.9l104-0.3l3.8,0l96.4-0.3l0-131.7   c-61.8-37.6-107.1-84.7-138.5-143.9c-43.2-81.6-57.3-184.7-42-306.3c-6-16.8-8.6-37.1-11.4-58.6c-1.5-11.4-3-23.1-5-34.4   c-76.3,6.6-172.8,16.4-210.5,26c-1.5,0.4-3.1,0.1-4.4-0.7c-0.3-0.2-26.4-17.3-49.5-17.3c-2.7,0-5.3,0.2-7.7,0.7l0,4.9   c0,1.5-0.6,2.9-1.6,3.9c-1,1-2.4,1.6-3.9,1.6l-33.6,0.1c5.4,8.8,20.2,23.2,59.6,23.2c11.1,0,23.5-1.2,36.9-3.5c2-0.3,4,0.4,5.2,2   l55.6,69.5l138.7,37.3C394.9,381.2,396.6,383.4,396.6,385.8z"/><path fill="{{COLOR}}" d="M807.1,269.7c13,2.2,25,3.2,35.8,3.2c40.2,0,55.2-14.7,60.6-23.6l-33.6,0.1c-1.5,0-2.9-0.6-3.9-1.6   c-1-1-1.6-2.4-1.6-3.9l0-4.9c-2.3-0.4-4.7-0.7-7.3-0.7c-23.1,0-49.4,17.5-49.6,17.6c-1.3,0.9-2.9,1.1-4.4,0.8   c-45.6-11.2-178.9-22.3-254.3-27.9c-2.9-0.2-5.1-2.6-5.1-5.5l-0.3-88.6c-0.1-24-19.6-43.5-43.6-43.5l-0.2,0   c-11.7,0-22.7,4.6-30.9,12.9c-8.2,8.3-12.7,19.3-12.7,30.9l0.3,88.6c0,2.9-2.2,5.3-5.1,5.5c-5.9,0.5-12.1,1-18.6,1.5l-7.1,0.6   c-1.9,0.2-4,0.3-6,0.5c7.7,21.1,25.1,55.3,52.7,91.2c36.3,47.2,81.9,86.2,132.2,113.3v-51.3c0-2.5,1.7-4.6,4-5.3l138.4-38.2   l55.1-69.8C803.2,270.1,805.2,269.3,807.1,269.7z"/><path fill="{{COLOR}}" d="M613.1,768.7h9.9l-7.1-313.9l-6.9-3.9c-0.5-0.1-1.1-0.3-1.6-0.5c-54.9-27.9-104.7-69.6-143.9-120.6   c-16.9-21.9-30.1-43.3-39.7-61.7c2.6,20.6,5.3,40,11,55.3c0.2,0.6,0.3,1.3,0.3,1.9c0,0.2,0,0.5,0,0.7   c-15.3,119.9-1.7,221.2,40.6,301.1c30.8,58.2,75.7,104.4,137.1,141.3C612.9,768.5,613,768.6,613.1,768.7z"/></g></g>
            </g>
        </svg>
    